<svg xmlns="http://www.w3.org/2000/svg" version="1.1" viewBox="0 0 720 380"><metadata/><g><g transform="translate(0 -672.36) translate(-12.857 661.32)"><rect width="720" height="380" x="12.857" y="11.038" fill="#f2f2f2"/><path fill="#ccc" d="m406.45 171.65h-67.181c-2.322 0-4.1988 1.8769-4.1988 4.1988v50.386c0 2.3178 1.8769 4.1988 4.1988 4.1988h67.181c2.322 0 4.1988-1.8811 4.1988-4.1988v-50.386c0-2.3178-1.8769-4.1988-4.1988-4.1988zm-19.944 14.696c2.8972 0 5.2485 2.3513 5.2485 5.2485s-2.3513 5.2485-5.2485 5.2485-5.2485-2.3513-5.2485-5.2485 2.3513-5.2485 5.2485-5.2485zm-38.839 31.491 13.915-31.991 15.825 25.621 13.566-6.7391 7.0792 13.109h-50.386z"/><text x="330.266" y="265.41" fill="#ccc" stroke-width=".542" font-family="sans-serif" font-size="21.695" letter-spacing="0" word-spacing="0" xml:space="preserve" style="line-height:1.25"><tspan x="330.266" y="265.41" fill="#ccc" stroke-width=".542" font-family="Lato">Loading..</tspan></text></g></g></svg>